<svg xmlns="http://www.w3.org/2000/svg" width="43.737" height="16.895" viewBox="0 0 43.737 16.895">
  <g id="icon_fish" transform="translate(0 -157.11)">
    <path id="パス_318" data-name="パス 318" d="M38.171,165.558a27.863,27.863,0,0,0,5.566-7.334l-2.124-1.113a25.462,25.462,0,0,1-5.266,6.87,27.763,27.763,0,0,0-35.283.666L0,165.558l1.065.912a27.76,27.76,0,0,0,35.283.666,25.442,25.442,0,0,1,5.266,6.87l2.123-1.113A27.863,27.863,0,0,0,38.171,165.558Zm-5.735,1.4a25.355,25.355,0,0,1-28.681-1.4,25.4,25.4,0,0,1,28.681-1.4q1.051.651,2.034,1.4Q33.489,166.3,32.436,166.956Z" fill="#275abe"/>
    <path id="パス_319" data-name="パス 319" d="M113.417,240.688A1.308,1.308,0,1,0,114.725,242,1.308,1.308,0,0,0,113.417,240.688Z" transform="translate(-102.532 -76.439)" fill="#275abe"/>
  </g>
</svg>
